# Blender v2.79 (sub 0) OBJ File: 'airfoilNEWconnectside.blend'
# www.blender.org
v -1.958584 0.166254 0.500000
v -1.841094 0.291540 0.500000
v -1.654429 0.379081 0.500000
v -1.405490 0.451087 0.500000
v -1.101174 0.487249 0.500000
v -0.748382 0.484059 0.500000
v -0.354013 0.475047 0.500000
v 0.075033 0.456249 0.500000
v 0.531856 0.410130 0.500000
v 1.009558 0.332597 0.500000
v 1.501239 0.218218 0.500000
v -2.000000 0.000000 0.500000
v -1.958584 -0.166254 0.500000
v -1.841094 -0.291540 0.500000
v -1.654429 -0.379081 0.500000
v -1.405490 -0.451087 0.500000
v -1.101174 -0.487248 0.500000
v -0.748382 -0.484058 0.500000
v -0.354013 -0.475047 0.500000
v 0.075033 -0.456248 0.500000
v 0.531856 -0.410129 0.500000
v 1.009558 -0.332597 0.500000
v 1.501239 -0.218217 0.500000
v 2.000000 0.000000 0.500000
v -2.000000 0.000000 -0.500000
v -1.958584 0.091554 -0.500000
v -1.841094 0.160547 -0.500000
v -1.654429 0.208754 -0.500000
v -1.405490 0.237950 -0.500000
v -1.101174 0.249908 -0.500000
v -0.748382 0.246403 -0.500000
v -0.354013 0.229209 -0.500000
v 0.075033 0.200100 -0.500000
v 0.531856 0.160850 -0.500000
v 1.009558 0.113234 -0.500000
v 1.501239 0.059026 -0.500000
v 2.000000 0.000000 -0.500000
v -2.000000 0.000000 -0.500000
v -1.958584 -0.091554 -0.500000
v -1.841094 -0.160547 -0.500000
v -1.654429 -0.208754 -0.500000
v -1.405490 -0.237950 -0.500000
v -1.101174 -0.249908 -0.500000
v -0.748382 -0.246403 -0.500000
v -0.354013 -0.229209 -0.500000
v 0.075033 -0.200100 -0.500000
v 0.531856 -0.160850 -0.500000
v 1.009558 -0.113234 -0.500000
v 1.501239 -0.059026 -0.500000
v -1.958584 0.091554 -0.500000
v -1.841094 0.160547 -0.500000
v -1.654429 0.208755 -0.500000
v -1.405490 0.237950 -0.500000
v -1.101174 0.249908 -0.500000
v -0.748382 0.246403 -0.500000
v -0.354013 0.229209 -0.500000
v 0.075033 0.200100 -0.500000
v 0.531856 0.160850 -0.500000
v 1.009558 0.113234 -0.500000
v 1.501239 0.059026 -0.500000
v 2.000000 0.000000 -0.500000
v -2.000000 0.000000 -0.500000
v -1.958584 -0.091553 -0.500000
v -1.841094 -0.160547 -0.500000
v -1.654429 -0.208754 -0.500000
v -1.405490 -0.237950 -0.500000
v -1.101174 -0.249908 -0.500000
v -0.748382 -0.246403 -0.500000
v -0.354013 -0.229208 -0.500000
v 0.075033 -0.200099 -0.500000
v 0.531856 -0.160850 -0.500000
v 1.009558 -0.113234 -0.500000
v 1.501239 -0.059026 -0.500000
v -1.958584 0.166254 0.500000
v -1.841094 0.291540 0.500000
v -1.654429 0.379081 0.500000
v -1.405490 0.451087 0.500000
v -1.101174 0.487249 0.500000
v -0.748382 0.484059 0.500000
v -0.354013 0.475047 0.500000
v 0.075033 0.456249 0.500000
v 0.531856 0.410130 0.500000
v 1.009558 0.332597 0.500000
v 1.501239 0.218218 0.500000
v 2.000000 0.000000 0.500000
v -2.000000 0.000000 0.500000
v -1.958584 -0.166254 0.500000
v -1.841094 -0.291540 0.500000
v -1.654429 -0.379081 0.500000
v -1.405490 -0.451087 0.500000
v -1.101174 -0.487248 0.500000
v -0.748382 -0.484058 0.500000
v -0.354013 -0.475047 0.500000
v 0.075033 -0.456248 0.500000
v 0.531856 -0.410129 0.500000
v 1.009558 -0.332597 0.500000
v 1.501239 -0.218217 0.500000
v 2.000000 0.000000 -0.500000
v 2.000000 0.000000 0.500000
v 2.000000 0.000000 -0.350000
v 1.501239 0.076273 -0.350000
v -1.101174 0.262669 -0.350000
v -1.405490 0.248327 -0.350000
v 0.075033 -0.219440 -0.350000
v -0.354013 -0.244797 -0.350000
v -1.958584 -0.094538 -0.350000
v -2.000000 0.000000 -0.350000
v -0.748382 0.259487 -0.350000
v 0.531856 -0.182382 -0.350000
v -1.841094 -0.165780 -0.350000
v -0.354013 0.244798 -0.350000
v 1.009558 -0.134447 -0.350000
v -1.654429 -0.215559 -0.350000
v 0.075033 0.219441 -0.350000
v 1.501239 -0.076272 -0.350000
v -1.958584 0.094538 -0.350000
v -1.405490 -0.248327 -0.350000
v 0.531856 0.182383 -0.350000
v -1.841094 0.165781 -0.350000
v -1.101174 -0.262668 -0.350000
v 1.009558 0.134448 -0.350000
v -1.654429 0.215559 -0.350000
v -0.748382 -0.259487 -0.350000
v 2.000000 0.000000 -0.350000
vt 0.126009 0.302427
vt 0.004077 0.236328
vt 0.126009 0.170230
vt 0.479044 0.206726
vt 0.546704 0.236328
vt 0.479044 0.265931
vt 0.412344 0.281447
vt 0.347541 0.291965
vt 0.412344 0.191209
vt 0.285569 0.298221
vt 0.285569 0.174435
vt 0.227366 0.300772
vt 0.227366 0.171885
vt 0.173867 0.301994
vt 0.173867 0.170662
vt 0.084726 0.297521
vt 0.050956 0.287753
vt 0.025633 0.275878
vt 0.009695 0.258882
vt 0.009695 0.213775
vt 0.050956 0.184903
vt 0.025633 0.196779
vt 0.084726 0.175135
vt 0.347541 0.180691
vt 0.896842 0.283783
vt 0.939824 0.283783
vt 0.907130 0.190464
vt 0.935710 0.847122
vt 0.918333 0.854983
vt 0.918333 0.854983
vt 0.887862 0.824823
vt 0.900957 0.847122
vt 0.948804 0.824823
vt 0.878713 0.789395
vt 0.957954 0.789395
vt 0.873171 0.742147
vt 0.965764 0.684390
vt 0.870902 0.684390
vt 0.965099 0.617431
vt 0.871567 0.617431
vt 0.874830 0.542582
vt 0.961836 0.542582
vt 0.880355 0.461151
vt 0.948862 0.374448
vt 0.887805 0.374448
vt 0.918333 0.095802
vt 0.929536 0.190464
vt 0.956311 0.461151
vt 0.963495 0.742147
vt 0.436750 0.394075
vt 0.243463 0.309013
vt 0.436750 0.309013
vt 0.436750 0.889810
vt 0.243463 0.837910
vt 0.436750 0.837910
vt 0.436750 0.710484
vt 0.243463 0.637311
vt 0.243463 0.710484
vt 0.436750 0.991203
vt 0.243463 0.984139
vt 0.243463 0.991203
vt 0.243463 0.777742
vt 0.436750 0.777742
vt 0.436750 0.637311
vt 0.243463 0.559401
vt 0.436750 0.984139
vt 0.243463 0.964102
vt 0.243463 0.710484
vt 0.436750 0.710484
vt 0.436750 0.559401
vt 0.243463 0.477930
vt 0.436750 0.964102
vt 0.243463 0.932267
vt 0.243463 0.637311
vt 0.436750 0.637311
vt 0.436750 0.477930
vt 0.243463 0.394075
vt 0.243463 0.984139
vt 0.436750 0.984139
vt 0.436750 0.932267
vt 0.243463 0.889810
vt 0.243463 0.559401
vt 0.436750 0.559401
vt 0.243463 0.964102
vt 0.436750 0.964102
vt 0.436750 0.889810
vt 0.243463 0.837910
vt 0.243463 0.477930
vt 0.436750 0.477930
vt 0.243463 0.932267
vt 0.436750 0.932267
vt 0.436750 0.837910
vt 0.243463 0.777742
vt 0.243463 0.394075
vt 0.436750 0.309013
vt 0.436750 0.394075
vt 0.243463 0.889810
vt 0.436750 0.777742
vt 0.470859 0.777742
vt 0.470859 0.932267
vt 0.470859 0.889810
vt 0.470859 0.309013
vt 0.470859 0.394075
vt 0.470859 0.477930
vt 0.470859 0.394075
vt 0.470859 0.837910
vt 0.470859 0.964102
vt 0.470859 0.559401
vt 0.470859 0.889810
vt 0.470859 0.984139
vt 0.470859 0.637311
vt 0.470859 0.932267
vt 0.470859 0.991203
vt 0.470859 0.477930
vt 0.470859 0.710484
vt 0.470859 0.964102
vt 0.470859 0.559401
vt 0.470859 0.777742
vt 0.470859 0.984139
vt 0.470859 0.637311
vt 0.470859 0.837910
vt 0.470859 0.710484
vt 0.470859 0.309013
vt 0.243463 0.309013
vn 0.0000 0.0000 1.0000
vn 0.0000 0.0000 -1.0000
vn 0.1553 0.9814 -0.1123
vn 0.3169 0.9430 -0.1013
vn 0.1375 0.9904 -0.0105
vn -0.0894 0.9841 -0.1534
vn -0.0452 0.9682 -0.2461
vn -0.0174 0.9853 -0.1698
vn 0.0475 -0.9819 -0.1832
vn 0.0713 -0.9615 -0.2652
vn 0.0340 -0.9652 -0.2591
vn -0.9998 0.0000 -0.0161
vn -0.8689 -0.4938 -0.0324
vn -1.0000 0.0000 0.0000
vn 0.0154 0.9667 -0.2554
vn 0.0220 0.9847 -0.1729
vn 0.0718 -0.9781 -0.1952
vn 0.1224 -0.9577 -0.2602
vn -0.7596 -0.6489 -0.0443
vn -0.5655 -0.8184 -0.1024
vn 0.0340 0.9652 -0.2591
vn 0.0475 0.9819 -0.1832
vn 0.0944 -0.9765 -0.1937
vn 0.1778 -0.9557 -0.2345
vn -0.3969 -0.9134 -0.0905
vn -0.3334 -0.9287 -0.1623
vn 0.0713 0.9615 -0.2652
vn 0.0718 0.9781 -0.1952
vn 0.1161 -0.9782 -0.1720
vn 0.2515 -0.9587 -0.1327
vn -0.8689 0.4938 -0.0324
vn -0.7596 0.6489 -0.0442
vn -0.1992 -0.9722 -0.1230
vn -0.1793 -0.9607 -0.2118
vn 0.1224 0.9577 -0.2602
vn 0.0944 0.9765 -0.1937
vn -0.5655 0.8184 -0.1024
vn -0.3969 0.9134 -0.0905
vn -0.0894 -0.9841 -0.1534
vn -0.0452 -0.9682 -0.2461
vn 0.1778 0.9557 -0.2345
vn 0.1161 0.9782 -0.1720
vn -0.3334 0.9287 -0.1623
vn -0.1992 0.9722 -0.1230
vn -0.0174 -0.9853 -0.1698
vn 0.0154 -0.9667 -0.2554
vn 0.2899 0.9402 -0.1790
vn 0.1970 -0.9789 -0.0531
vn 0.1248 -0.9830 -0.1345
vn -0.1793 0.9607 -0.2118
vn 0.0220 -0.9847 -0.1729
vn 0.0242 -0.9957 -0.0888
vn -0.1884 0.9809 -0.0485
vn -0.0806 0.9942 -0.0711
vn 0.1449 -0.9892 -0.0210
vn 0.1128 -0.9871 -0.1135
vn 0.1067 0.9848 -0.1368
vn 0.1268 0.9866 -0.1029
vn -0.0150 -0.9962 -0.0850
vn -0.3848 0.9223 -0.0343
vn 0.0918 0.9857 -0.1413
vn -0.0806 -0.9942 -0.0711
vn -0.7476 0.6639 -0.0167
vn 0.0742 0.9889 -0.1289
vn -0.1884 -0.9809 -0.0485
vn -1.0000 0.0000 -0.0055
vn 0.1067 -0.9848 -0.1368
vn 0.0519 0.9930 -0.1059
vn -0.3848 -0.9223 -0.0343
vn 0.0918 -0.9857 -0.1413
vn 0.0242 0.9957 -0.0888
vn -0.7476 -0.6639 -0.0167
vn 0.0742 -0.9889 -0.1289
vn -0.0150 0.9962 -0.0850
vn 0.0519 -0.9930 -0.1059
vn 0.1175 0.9930 0.0000
vn 0.4008 -0.9161 0.0000
s 1
f 5/1/1 12/2/1 17/3/1
f 23/4/1 24/5/1 11/6/1
f 11/6/1 10/7/1 23/4/1
f 10/7/1 9/8/1 22/9/1
f 23/4/1 10/7/1 22/9/1
f 9/8/1 8/10/1 20/11/1
f 8/10/1 7/12/1 19/13/1
f 7/12/1 6/14/1 19/13/1
f 6/14/1 5/1/1 18/15/1
f 19/13/1 6/14/1 18/15/1
f 5/1/1 4/16/1 12/2/1
f 4/16/1 3/17/1 12/2/1
f 3/17/1 2/18/1 1/19/1
f 1/19/1 12/2/1 3/17/1
f 12/2/1 13/20/1 15/21/1
f 13/20/1 14/22/1 15/21/1
f 15/21/1 16/23/1 12/2/1
f 16/23/1 17/3/1 12/2/1
f 17/3/1 18/15/1 5/1/1
f 19/13/1 20/11/1 8/10/1
f 20/11/1 21/24/1 9/8/1
f 21/24/1 22/9/1 9/8/1
f 48/25/2 35/26/2 49/27/2
f 26/28/2 38/29/2 25/30/1
f 38/29/2 40/31/2 39/32/2
f 40/31/2 27/33/2 41/34/2
f 41/34/2 28/35/2 42/36/2
f 27/33/2 28/35/2 41/34/2
f 42/36/2 30/37/2 43/38/2
f 43/38/2 31/39/2 44/40/2
f 44/40/2 31/39/2 45/41/2
f 45/41/2 32/42/2 46/43/2
f 31/39/2 32/42/2 45/41/2
f 46/43/2 34/44/2 47/45/2
f 47/45/2 35/26/2 48/25/2
f 37/46/2 49/27/2 36/47/2
f 36/47/2 49/27/2 35/26/2
f 35/26/2 47/45/2 34/44/2
f 34/44/2 46/43/2 33/48/2
f 33/48/2 46/43/2 32/42/2
f 31/39/2 43/38/2 30/37/2
f 30/37/2 42/36/2 29/49/2
f 29/49/2 42/36/2 28/35/2
f 27/33/2 38/29/2 26/28/2
f 38/29/2 27/33/2 40/31/2
f 101/50/3 99/51/4 100/52/5
f 103/53/6 78/54/7 102/55/8
f 105/56/9 94/57/10 93/58/11
f 107/59/12 87/60/13 86/61/14
f 102/55/8 79/62/15 108/63/16
f 104/64/17 95/65/18 94/57/10
f 106/66/19 88/67/20 87/60/13
f 108/63/16 80/68/21 111/69/22
f 109/70/23 96/71/24 95/65/18
f 110/72/25 89/73/26 88/67/20
f 111/69/22 81/74/27 114/75/28
f 112/76/29 97/77/30 96/71/24
f 107/59/12 74/78/31 116/79/32
f 113/80/33 90/81/34 89/73/26
f 114/75/28 82/82/35 118/83/36
f 116/79/32 75/84/37 119/85/38
f 117/86/39 91/87/40 90/81/34
f 118/83/36 83/88/41 121/89/42
f 119/85/38 76/90/43 122/91/44
f 120/92/45 92/93/46 91/87/40
f 121/89/42 84/94/47 101/50/3
f 124/95/48 97/77/30 115/96/49
f 122/91/44 77/97/50 103/53/6
f 123/98/51 93/58/11 92/93/46
f 68/99/52 105/56/9 123/98/51
f 52/100/53 103/53/6 53/101/54
f 61/102/55 115/96/49 73/103/56
f 59/104/57 101/50/3 60/105/58
f 67/106/59 123/98/51 120/92/45
f 51/107/60 122/91/44 52/100/53
f 58/108/61 121/89/42 59/104/57
f 66/109/62 120/92/45 117/86/39
f 50/110/63 119/85/38 51/107/60
f 57/111/64 118/83/36 58/108/61
f 65/112/65 117/86/39 113/80/33
f 62/113/66 116/79/32 50/110/63
f 72/114/67 115/96/49 112/76/29
f 56/115/68 114/75/28 57/111/64
f 64/116/69 113/80/33 110/72/25
f 71/117/70 112/76/29 109/70/23
f 55/118/71 111/69/22 56/115/68
f 63/119/72 110/72/25 106/66/19
f 70/120/73 109/70/23 104/64/17
f 54/121/74 108/63/16 55/118/71
f 62/113/66 106/66/19 107/59/12
f 69/122/75 104/64/17 105/56/9
f 53/101/54 102/55/8 54/121/74
f 60/105/58 100/52/5 98/123/76
f 101/50/3 84/94/47 99/51/4
f 103/53/6 77/97/50 78/54/7
f 105/56/9 104/64/17 94/57/10
f 107/59/12 106/66/19 87/60/13
f 102/55/8 78/54/7 79/62/15
f 104/64/17 109/70/23 95/65/18
f 106/66/19 110/72/25 88/67/20
f 108/63/16 79/62/15 80/68/21
f 109/70/23 112/76/29 96/71/24
f 110/72/25 113/80/33 89/73/26
f 111/69/22 80/68/21 81/74/27
f 112/76/29 115/96/49 97/77/30
f 107/59/12 86/61/14 74/78/31
f 113/80/33 117/86/39 90/81/34
f 114/75/28 81/74/27 82/82/35
f 116/79/32 74/78/31 75/84/37
f 117/86/39 120/92/45 91/87/40
f 118/83/36 82/82/35 83/88/41
f 119/85/38 75/84/37 76/90/43
f 120/92/45 123/98/51 92/93/46
f 121/89/42 83/88/41 84/94/47
f 124/95/48 85/124/77 97/77/30
f 122/91/44 76/90/43 77/97/50
f 123/98/51 105/56/9 93/58/11
f 68/99/52 69/122/75 105/56/9
f 52/100/53 122/91/44 103/53/6
f 61/102/55 124/95/48 115/96/49
f 59/104/57 121/89/42 101/50/3
f 67/106/59 68/99/52 123/98/51
f 51/107/60 119/85/38 122/91/44
f 58/108/61 118/83/36 121/89/42
f 66/109/62 67/106/59 120/92/45
f 50/110/63 116/79/32 119/85/38
f 57/111/64 114/75/28 118/83/36
f 65/112/65 66/109/62 117/86/39
f 62/113/66 107/59/12 116/79/32
f 72/114/67 73/103/56 115/96/49
f 56/115/68 111/69/22 114/75/28
f 64/116/69 65/112/65 113/80/33
f 71/117/70 72/114/67 112/76/29
f 55/118/71 108/63/16 111/69/22
f 63/119/72 64/116/69 110/72/25
f 70/120/73 71/117/70 109/70/23
f 54/121/74 102/55/8 108/63/16
f 62/113/66 63/119/72 106/66/19
f 69/122/75 70/120/73 104/64/17
f 53/101/54 103/53/6 102/55/8
f 60/105/58 101/50/3 100/52/5
