# Blender v2.79 (sub 0) OBJ File: ''
# www.blender.org
v 0.500000 -0.114070 -0.235901
v 0.235901 -0.114070 -0.500000
v 0.345988 -0.205104 -0.500000
v 0.500000 -0.205104 -0.345988
v 0.500000 0.000000 -0.182444
v 0.500000 0.114070 -0.235901
v 0.235901 0.114070 -0.500000
v 0.182444 0.000000 -0.500000
v 0.345988 0.205104 -0.500000
v 0.500000 0.205104 -0.345988
v 0.182444 0.000000 -0.500000
v 0.235901 0.114070 -0.500000
v 0.235901 -0.114070 -0.500000
v 0.345988 0.205104 -0.500000
v 0.345988 -0.205104 -0.500000
v 0.499354 0.250000 -0.500000
v 0.500000 -0.250000 -0.500000
v 0.500000 0.000000 -0.182444
v 0.500000 -0.114070 -0.235901
v 0.500000 0.114070 -0.235901
v 0.500000 -0.205104 -0.345988
v 0.500000 0.205104 -0.345988
v 0.500000 0.250000 -0.500000
v 0.500000 -0.250000 -0.500000
v 0.500000 0.250000 -0.500000
v 0.500000 -0.250000 -0.500000
vt 0.000143 0.245187
vt 0.341630 0.532734
vt 0.319340 0.565692
vt 0.000143 0.549113
vt 0.137346 0.014293
vt 0.439412 0.000143
vt 0.385518 0.522719
vt 0.360308 0.518724
vt 0.630529 0.260716
vt 0.433869 0.525656
vt 0.250000 0.637798
vt 0.364005 0.691224
vt 0.135995 0.691224
vt 0.454987 0.801248
vt 0.045013 0.801248
vt 0.499857 0.954527
vt 0.000143 0.954527
vt 0.750000 0.954527
vt 0.635995 0.901100
vt 0.864005 0.901100
vt 0.545013 0.791076
vt 0.954987 0.791076
vt 0.999857 0.637798
vt 0.500143 0.637798
vt 0.000000 0.000000
vt 0.000000 0.000000
vn -0.6356 -0.4382 0.6356
vn -0.4736 -0.7426 0.4736
vn -0.7071 -0.0000 0.7071
vn -0.6356 0.4382 0.6356
vn -0.4736 0.7426 0.4736
vn 0.0000 0.0000 -1.0000
vn 1.0000 0.0000 0.0000
vn 0.0000 1.0000 0.0000
vn 0.0000 -1.0000 0.0000
s 1
f 1/1/1 2/2/1 3/3/2 4/4/2
f 5/5/3 6/6/4 7/7/4 8/8/3
f 1/1/1 5/5/3 8/8/3 2/2/1
f 10/9/5 9/10/5 7/7/4 6/6/4
f 11/11/6 12/12/6 13/13/6
f 12/12/6 14/14/6 15/15/6
f 13/13/6 12/12/6 15/15/6
f 16/16/6 17/17/6 14/14/6
f 17/17/6 15/15/6 14/14/6
f 18/18/7 19/19/7 20/20/7
f 20/20/7 21/21/7 22/22/7
f 19/19/7 21/21/7 20/20/7
f 23/23/7 22/22/7 24/24/7
f 24/24/7 22/22/7 21/21/7
f 10/9/5 25/25/8 9/10/5
f 4/4/2 3/3/2 26/26/9
