# Blender v2.79 (sub 0) OBJ File: ''
# www.blender.org
v -0.500000 -0.500000 0.250000
v -0.212987 -0.500000 0.192910
v -0.212987 0.500000 0.192910
v -0.500000 0.500000 0.250000
v 0.030330 -0.500000 0.030330
v 0.030330 0.500000 0.030330
v 0.192910 -0.500000 -0.212987
v 0.192910 0.500000 -0.212987
v 0.250000 -0.500000 -0.500000
v 0.250000 0.500000 -0.500000
v -0.500000 0.500000 -0.250000
v -0.404329 0.500000 -0.269030
v -0.404329 -0.500000 -0.269030
v -0.500000 -0.500000 -0.250000
v -0.323223 0.500000 -0.323223
v -0.323223 -0.500000 -0.323223
v -0.269030 0.500000 -0.404329
v -0.269030 -0.500000 -0.404329
v -0.250000 0.500000 -0.500000
v -0.250000 -0.500000 -0.500000
v -0.500000 -0.500000 -0.250000
v -0.404329 -0.500000 -0.269030
v -0.212987 -0.500000 0.192910
v -0.500000 -0.500000 0.250000
v -0.323223 -0.500000 -0.323223
v 0.030330 -0.500000 0.030330
v -0.269030 -0.500000 -0.404329
v 0.192910 -0.500000 -0.212987
v -0.250000 -0.500000 -0.500000
v 0.250000 -0.500000 -0.500000
v -0.500000 0.500000 0.250000
v -0.212987 0.500000 0.192910
v -0.404329 0.500000 -0.269030
v -0.500000 0.500000 -0.250000
v 0.030330 0.500000 0.030330
v -0.323223 0.500000 -0.323223
v 0.192910 0.500000 -0.212987
v -0.269030 0.500000 -0.404329
v 0.250000 0.500000 -0.500000
v -0.250000 0.500000 -0.500000
v -0.250000 -0.500000 -0.500000
v -0.250000 0.500000 -0.500000
v 0.250000 0.500000 -0.500000
v 0.250000 -0.500000 -0.500000
v -0.500000 -0.500000 -0.250000
v -0.500000 -0.500000 0.250000
v -0.500000 0.500000 0.250000
v -0.500000 0.500000 -0.250000
vt 0.000200 0.666866
vt 0.062700 0.666866
vt 0.395634 0.666866
vt 0.333134 0.666866
vt 0.125200 0.666866
vt 0.458134 0.666866
vt 0.187700 0.666866
vt 0.520634 0.666866
vt 0.250200 0.666866
vt 0.583134 0.666866
vt 0.333134 0.999800
vt 0.395634 0.999800
vt 0.062700 0.999800
vt 0.000200 0.999800
vt 0.458134 0.999800
vt 0.125200 0.999800
vt 0.520634 0.999800
vt 0.187700 0.999800
vt 0.583134 0.999800
vt 0.250200 0.999800
vt 0.000200 0.999800
vt 0.062700 0.999800
vt 0.062700 0.666866
vt 0.000200 0.666866
vt 0.125200 0.999800
vt 0.125200 0.666866
vt 0.187700 0.999800
vt 0.187700 0.666866
vt 0.250200 0.999800
vt 0.250200 0.666866
vt 0.333134 0.666866
vt 0.395634 0.666866
vt 0.395634 0.999800
vt 0.333134 0.999800
vt 0.458134 0.666866
vt 0.458134 0.999800
vt 0.520634 0.666866
vt 0.520634 0.999800
vt 0.583134 0.666866
vt 0.583134 0.999800
vt 0.250200 0.999800
vt 0.583134 0.999800
vt 0.583134 0.666866
vt 0.250200 0.666866
vt 0.000200 0.999800
vt 0.000200 0.666866
vt 0.333134 0.666866
vt 0.333134 0.999800
vn 0.1951 0.0000 0.9808
vn 0.3827 0.0000 0.9239
vn 0.7071 0.0000 0.7071
vn 0.9239 0.0000 0.3827
vn 0.9808 0.0000 0.1951
vn -0.1951 -0.0000 -0.9808
vn -0.3827 -0.0000 -0.9239
vn -0.7071 -0.0000 -0.7071
vn -0.9239 -0.0000 -0.3827
vn -0.9808 -0.0000 -0.1951
vn 0.0000 -1.0000 0.0000
vn -0.0000 1.0000 -0.0000
vn 0.0000 -0.0000 -1.0000
vn -1.0000 0.0000 0.0000
s 1
f 1/1/1 2/2/2 3/3/2 4/4/1
f 2/2/2 5/5/3 6/6/3 3/3/2
f 5/5/3 7/7/4 8/8/4 6/6/3
f 7/7/4 9/9/5 10/10/5 8/8/4
f 11/11/6 12/12/7 13/13/7 14/14/6
f 12/12/7 15/15/8 16/16/8 13/13/7
f 15/15/8 17/17/9 18/18/9 16/16/8
f 17/17/9 19/19/10 20/20/10 18/18/9
f 21/21/11 22/22/11 23/23/11 24/24/11
f 22/22/11 25/25/11 26/26/11 23/23/11
f 25/25/11 27/27/11 28/28/11 26/26/11
f 27/27/11 29/29/11 30/30/11 28/28/11
f 31/31/12 32/32/12 33/33/12 34/34/12
f 32/32/12 35/35/12 36/36/12 33/33/12
f 35/35/12 37/37/12 38/38/12 36/36/12
f 37/37/12 39/39/12 40/40/12 38/38/12
f 41/41/13 42/42/13 43/43/13 44/44/13
f 45/45/14 46/46/14 47/47/14 48/48/14
