# Blender v2.79 (sub 0) OBJ File: ''
# www.blender.org
v 1.153366 0.205104 -1.000000
v 1.000000 -0.250000 -1.000000
v 1.000000 0.250000 -1.000000
v -1.000000 0.250000 -1.000000
v -1.000000 -0.250000 -1.000000
v 1.153366 -0.205104 -1.000000
v 1.263453 0.114070 -1.000000
v 1.263453 -0.114070 -1.000000
v 1.316910 0.000000 -1.000000
v -1.000000 -0.250000 -1.000000
v -1.000000 -0.250000 1.000000
v -1.000000 0.250000 -1.000000
v -1.000000 0.250000 1.000000
v -1.000000 0.205104 1.153366
v -1.000000 -0.205104 1.153366
v -1.000000 0.114070 1.263453
v -1.000000 -0.114070 1.263453
v -1.000000 -0.000000 1.316910
v -1.000000 0.250000 1.000000
v -1.000000 0.205104 1.153366
v -0.334573 0.205104 1.047973
v -0.381966 0.250000 0.902113
v 0.265717 0.205104 0.742110
v 0.175570 0.250000 0.618034
v 0.742110 0.205104 0.265717
v 0.618034 0.250000 0.175571
v 1.047973 0.205104 -0.334573
v 0.902113 0.250000 -0.381966
v 1.153366 0.205104 -1.000000
v 1.000000 0.250000 -1.000000
v -1.000000 0.114070 1.263453
v -0.300555 0.114070 1.152672
v 0.330424 0.114070 0.831172
v 0.831172 0.114070 0.330424
v 1.152672 0.114070 -0.300555
v 1.263453 0.114070 -1.000000
v -1.000000 -0.000000 1.316910
v -0.284035 -0.000000 1.203512
v 0.361845 -0.000000 0.874420
v 0.874420 -0.000000 0.361845
v 1.203512 0.000000 -0.284036
v 1.316910 0.000000 -1.000000
v -1.000000 -0.250000 1.000000
v -1.000000 -0.250000 -1.000000
v -0.381966 -0.250000 0.902113
v 0.175570 -0.250000 0.618034
v 0.618034 -0.250000 0.175570
v 0.902113 -0.250000 -0.381966
v 1.000000 -0.250000 -1.000000
v -1.000000 -0.205104 1.153366
v -0.334573 -0.205104 1.047973
v 0.265717 -0.205104 0.742110
v 0.742110 -0.205104 0.265717
v 1.047973 -0.205104 -0.334573
v 1.153366 -0.205104 -1.000000
v -1.000000 -0.114070 1.263453
v -0.300555 -0.114070 1.152672
v 0.330424 -0.114070 0.831172
v 0.831172 -0.114070 0.330424
v 1.152672 -0.114070 -0.300555
v 1.263453 -0.114070 -1.000000
v -1.000000 0.250000 -1.000000
vt 0.408058 0.913668
vt 0.379004 0.999884
vt 0.379004 0.905162
vt 0.000116 0.905162
vt 0.000116 0.999884
vt 0.408058 0.991379
vt 0.428914 0.930914
vt 0.428914 0.974133
vt 0.439041 0.952523
vt 0.713902 0.000116
vt 0.713902 0.379004
vt 0.619180 0.000116
vt 0.619180 0.379004
vt 0.627685 0.408059
vt 0.705397 0.408059
vt 0.644931 0.428914
vt 0.688151 0.428914
vt 0.666541 0.439041
vt 0.027440 0.573766
vt 0.014336 0.539963
vt 0.148063 0.513718
vt 0.153479 0.541900
vt 0.259249 0.498833
vt 0.262417 0.524562
vt 0.365023 0.489171
vt 0.366681 0.515165
vt 0.478009 0.483562
vt 0.477925 0.512765
vt 0.616387 0.484206
vt 0.610511 0.520875
vt 0.005074 0.509191
vt 0.144493 0.489289
vt 0.256870 0.476683
vt 0.363366 0.466848
vt 0.477121 0.458461
vt 0.618948 0.451731
vt 0.000116 0.481022
vt 0.141964 0.467756
vt 0.254864 0.457335
vt 0.361552 0.447423
vt 0.475344 0.436916
vt 0.618934 0.423473
vt 0.008788 0.385266
vt 0.264417 0.000116
vt 0.139172 0.392845
vt 0.249550 0.389875
vt 0.353762 0.379960
vt 0.463436 0.361902
vt 0.591517 0.329076
vt 0.003207 0.421303
vt 0.139176 0.421736
vt 0.251299 0.415765
vt 0.357038 0.405766
vt 0.468992 0.390359
vt 0.605051 0.363446
vt 0.000116 0.453068
vt 0.140197 0.446441
vt 0.253044 0.437984
vt 0.359525 0.428001
vt 0.472780 0.415154
vt 0.613921 0.394994
vt 0.349144 0.904931
vn 0.0000 0.0000 -1.0000
vn -1.0000 0.0000 0.0000
vn 0.0000 1.0000 0.0000
vn 0.0765 0.8724 0.4828
vn 0.1496 0.8750 0.4605
vn 0.2846 0.8750 0.3917
vn 0.3917 0.8750 0.2846
vn 0.4605 0.8750 0.1496
vn 0.4828 0.8724 0.0765
vn 0.1255 0.5972 0.7922
vn 0.2467 0.6020 0.7594
vn 0.4693 0.6020 0.6460
vn 0.6460 0.6020 0.4693
vn 0.7594 0.6020 0.2467
vn 0.7922 0.5972 0.1255
vn 0.1564 -0.0000 0.9877
vn 0.3090 0.0000 0.9511
vn 0.5878 -0.0000 0.8090
vn 0.8090 -0.0000 0.5878
vn 0.9511 -0.0000 0.3090
vn 0.9877 0.0000 0.1564
vn 0.0000 -1.0000 0.0000
vn 0.0765 -0.8724 0.4828
vn 0.1496 -0.8750 0.4605
vn 0.2846 -0.8750 0.3917
vn 0.3917 -0.8750 0.2846
vn 0.4605 -0.8750 0.1496
vn 0.4828 -0.8724 0.0765
vn 0.1255 -0.5972 0.7922
vn 0.2467 -0.6020 0.7594
vn 0.4693 -0.6020 0.6460
vn 0.6460 -0.6020 0.4693
vn 0.7594 -0.6020 0.2467
vn 0.7922 -0.5972 0.1255
s 1
f 1/1/1 2/2/1 3/3/1
f 3/3/1 2/2/1 4/4/1
f 5/5/1 4/4/1 2/2/1
f 2/2/1 1/1/1 6/6/1
f 1/1/1 7/7/1 6/6/1
f 6/6/1 7/7/1 8/8/1
f 9/9/1 8/8/1 7/7/1
f 10/10/2 11/11/2 12/12/2
f 12/12/2 11/11/2 13/13/2
f 14/14/2 13/13/2 11/11/2
f 11/11/2 15/15/2 14/14/2
f 14/14/2 15/15/2 16/16/2
f 15/15/2 17/17/2 16/16/2
f 18/18/2 16/16/2 17/17/2
f 19/19/3 20/20/4 21/21/5 22/22/3
f 22/22/3 21/21/5 23/23/6 24/24/3
f 24/24/3 23/23/6 25/25/7 26/26/3
f 26/26/3 25/25/7 27/27/8 28/28/3
f 28/28/3 27/27/8 29/29/9 30/30/3
f 20/20/4 31/31/10 32/32/11 21/21/5
f 21/21/5 32/32/11 33/33/12 23/23/6
f 23/23/6 33/33/12 34/34/13 25/25/7
f 25/25/7 34/34/13 35/35/14 27/27/8
f 27/27/8 35/35/14 36/36/15 29/29/9
f 37/37/16 38/38/17 32/32/11 31/31/10
f 38/38/17 39/39/18 33/33/12 32/32/11
f 39/39/18 40/40/19 34/34/13 33/33/12
f 40/40/19 41/41/20 35/35/14 34/34/13
f 41/41/20 42/42/21 36/36/15 35/35/14
f 43/43/22 44/44/22 45/45/22
f 45/45/22 44/44/22 46/46/22
f 46/46/22 44/44/22 47/47/22
f 47/47/22 44/44/22 48/48/22
f 48/48/22 44/44/22 49/49/22
f 50/50/23 43/43/22 45/45/22 51/51/24
f 51/51/24 45/45/22 46/46/22 52/52/25
f 52/52/25 46/46/22 47/47/22 53/53/26
f 53/53/26 47/47/22 48/48/22 54/54/27
f 54/54/27 48/48/22 49/49/22 55/55/28
f 56/56/29 57/57/30 38/38/17 37/37/16
f 57/57/30 58/58/31 39/39/18 38/38/17
f 58/58/31 59/59/32 40/40/19 39/39/18
f 59/59/32 60/60/33 41/41/20 40/40/19
f 60/60/33 61/61/34 42/42/21 41/41/20
f 19/19/3 22/22/3 62/62/3
f 22/22/3 24/24/3 62/62/3
f 24/24/3 26/26/3 62/62/3
f 26/26/3 28/28/3 62/62/3
f 28/28/3 30/30/3 62/62/3
f 50/50/23 51/51/24 57/57/30 56/56/29
f 51/51/24 52/52/25 58/58/31 57/57/30
f 52/52/25 53/53/26 59/59/32 58/58/31
f 53/53/26 54/54/27 60/60/33 59/59/32
f 54/54/27 55/55/28 61/61/34 60/60/33
