# Blender v2.79 (sub 0) OBJ File: ''
# www.blender.org
v -0.500000 0.336456 0.205104
v -0.282111 0.336456 0.170594
v -0.310242 0.446543 0.084015
v -0.500000 0.446543 0.114070
v -0.085550 0.336456 0.070441
v -0.139059 0.446543 -0.003207
v 0.070441 0.336456 -0.085550
v -0.003207 0.446543 -0.139059
v 0.170594 0.336456 -0.282111
v 0.084015 0.446543 -0.310242
v 0.205104 0.336456 -0.500000
v 0.114070 0.446543 -0.500000
v -0.500000 0.336456 -0.205104
v -0.500000 0.446543 -0.114070
v -0.380741 0.446543 -0.132959
v -0.408872 0.336456 -0.219537
v -0.273156 0.446543 -0.187776
v -0.326664 0.336456 -0.261424
v -0.187776 0.446543 -0.273156
v -0.261424 0.336456 -0.326664
v -0.132959 0.446543 -0.380741
v -0.219537 0.336456 -0.408872
v -0.114070 0.446543 -0.500000
v -0.205104 0.336456 -0.500000
v -0.500000 -0.500000 0.250000
v -0.268237 -0.500000 0.213292
v -0.268237 0.183090 0.213292
v -0.500000 0.183090 0.250000
v -0.059161 -0.500000 0.106763
v -0.059161 0.183090 0.106763
v 0.106763 -0.500000 -0.059161
v 0.106763 0.183090 -0.059161
v 0.213292 -0.500000 -0.268237
v 0.213292 0.183090 -0.268237
v 0.250000 -0.500000 -0.500000
v 0.250000 0.183090 -0.500000
v -0.500000 0.183090 -0.250000
v -0.422746 0.183090 -0.262236
v -0.422746 -0.500000 -0.262236
v -0.500000 -0.500000 -0.250000
v -0.353054 0.183090 -0.297746
v -0.353054 -0.500000 -0.297746
v -0.297746 0.183090 -0.353054
v -0.297746 -0.500000 -0.353054
v -0.262236 0.183090 -0.422746
v -0.262236 -0.500000 -0.422746
v -0.250000 0.183090 -0.500000
v -0.250000 -0.500000 -0.500000
v -0.345491 0.500000 -0.024472
v -0.500000 0.500000 0.000000
v -0.206107 0.500000 -0.095491
v -0.095491 0.500000 -0.206107
v -0.024472 0.500000 -0.345491
v 0.000000 0.500000 -0.500000
v 0.114070 0.446543 -0.500000
v 0.205104 0.336456 -0.500000
v 0.250000 0.183090 -0.500000
v 0.250000 -0.500000 -0.500000
v -0.250000 -0.500000 -0.500000
v -0.250000 0.183090 -0.500000
v -0.205104 0.336456 -0.500000
v -0.114070 0.446543 -0.500000
v 0.000000 0.500000 -0.500000
v -0.500000 0.446543 0.114070
v -0.500000 0.500000 0.000000
v -0.500000 0.446543 -0.114070
v -0.500000 0.336456 -0.205104
v -0.500000 0.183090 -0.250000
v -0.500000 -0.500000 -0.250000
v -0.500000 -0.500000 0.250000
v -0.500000 0.183090 0.250000
v -0.500000 0.336456 0.205104
v -0.500000 -0.500000 0.250000
v -0.500000 -0.500000 -0.250000
v -0.422746 -0.500000 -0.262236
v -0.268237 -0.500000 0.213292
v -0.353054 -0.500000 -0.297746
v -0.059161 -0.500000 0.106763
v -0.297746 -0.500000 -0.353054
v 0.106763 -0.500000 -0.059161
v -0.262236 -0.500000 -0.422746
v 0.213292 -0.500000 -0.268237
v -0.250000 -0.500000 -0.500000
v 0.250000 -0.500000 -0.500000
vt 0.000000 0.336456
vt 0.050000 0.336456
vt 0.050000 0.446543
vt 0.000000 0.446543
vt 0.100000 0.336456
vt 0.100000 0.446543
vt 0.150000 0.336456
vt 0.150000 0.446543
vt 0.200000 0.336456
vt 0.200000 0.446543
vt 0.250000 0.336456
vt 0.250000 0.446543
vt 0.000000 0.336456
vt 0.000000 0.446543
vt 0.050000 0.446543
vt 0.050000 0.336456
vt 0.100000 0.446543
vt 0.100000 0.336456
vt 0.150000 0.446543
vt 0.150000 0.336456
vt 0.200000 0.446543
vt 0.200000 0.336456
vt 0.250000 0.446543
vt 0.250000 0.336456
vt 0.000000 -0.500000
vt 0.050000 -0.500000
vt 0.050000 0.183090
vt 0.000000 0.183090
vt 0.100000 -0.500000
vt 0.100000 0.183090
vt 0.150000 -0.500000
vt 0.150000 0.183090
vt 0.200000 -0.500000
vt 0.200000 0.183090
vt 0.250000 -0.500000
vt 0.250000 0.183090
vt 0.000000 0.183090
vt 0.050000 0.183090
vt 0.050000 -0.500000
vt 0.000000 -0.500000
vt 0.100000 0.183090
vt 0.100000 -0.500000
vt 0.150000 0.183090
vt 0.150000 -0.500000
vt 0.200000 0.183090
vt 0.200000 -0.500000
vt 0.250000 0.183090
vt 0.250000 -0.500000
vt 0.050000 0.500000
vt 0.000000 0.500000
vt 0.100000 0.500000
vt 0.150000 0.500000
vt 0.200000 0.500000
vt 0.250000 0.500000
vt 0.250000 0.446543
vt 0.250000 0.336456
vt 0.250000 0.183090
vt 0.250000 -0.500000
vt 0.250000 -0.500000
vt 0.250000 0.183090
vt 0.250000 0.336456
vt 0.250000 0.446543
vt 0.250000 0.500000
vt 0.000000 0.446543
vt 0.000000 0.500000
vt 0.000000 0.446543
vt 0.000000 0.336456
vt 0.000000 0.183090
vt 0.000000 -0.500000
vt 0.000000 -0.500000
vt 0.000000 0.183090
vt 0.000000 0.336456
vt 0.000000 -0.500000
vt 0.000000 -0.500000
vt 0.050000 -0.500000
vt 0.050000 -0.500000
vt 0.100000 -0.500000
vt 0.100000 -0.500000
vt 0.150000 -0.500000
vt 0.150000 -0.500000
vt 0.200000 -0.500000
vt 0.200000 -0.500000
vt 0.250000 -0.500000
vt 0.250000 -0.500000
vn 0.1392 0.4561 0.8790
vn 0.2743 0.4606 0.8442
vn 0.1933 0.7801 0.5951
vn 0.0986 0.7763 0.6226
vn 0.5217 0.4606 0.7181
vn 0.3678 0.7801 0.5062
vn 0.7181 0.4606 0.5217
vn 0.5062 0.7801 0.3678
vn 0.8442 0.4606 0.2743
vn 0.5951 0.7801 0.1933
vn 0.8790 0.4561 0.1392
vn 0.6226 0.7763 0.0986
vn -0.1379 0.4727 -0.8704
vn -0.0943 0.7977 -0.5957
vn -0.1849 0.8013 -0.5690
vn -0.2716 0.4773 -0.8358
vn -0.3517 0.8013 -0.4841
vn -0.5165 0.4773 -0.7109
vn -0.4841 0.8013 -0.3517
vn -0.7109 0.4773 -0.5165
vn -0.5690 0.8013 -0.1849
vn -0.8358 0.4773 -0.2716
vn -0.5957 0.7977 -0.0943
vn -0.8704 0.4727 -0.1379
vn 0.1564 -0.0000 0.9877
vn 0.3047 -0.1668 0.9377
vn 0.0947 0.1414 0.9854
vn 0.5796 -0.1668 0.7977
vn 0.3946 0.1414 0.9079
vn 0.7977 -0.1668 0.5795
vn 0.6559 0.1414 0.7415
vn 0.9377 -0.1668 0.3048
vn 0.8529 0.1414 0.5026
vn 0.9877 -0.0000 0.1564
vn -0.1564 -0.0000 -0.9877
vn -0.2909 0.3368 -0.8955
vn -0.3057 0.1461 -0.9408
vn -0.5535 0.3368 -0.7617
vn -0.5815 0.1461 -0.8003
vn -0.7619 0.3368 -0.5533
vn -0.8003 0.1461 -0.5815
vn -0.8955 0.3368 -0.2908
vn -0.9409 0.1461 -0.3057
vn -0.9877 -0.0000 -0.1564
vn 0.0131 0.9991 0.0403
vn 0.0067 0.9991 0.0424
vn 0.0249 0.9991 0.0343
vn 0.0343 0.9991 0.0249
vn 0.0403 0.9991 0.0131
vn 0.0424 0.9991 0.0067
vn 0.0000 0.0000 -1.0000
vn -0.0367 0.1253 -0.9914
vn 0.0377 0.1288 -0.9910
vn -1.0000 -0.0000 0.0000
vn -0.9910 0.1288 0.0377
vn -0.9914 0.1253 -0.0367
vn -0.0000 -1.0000 -0.0000
s 1
f 1/1/1 2/2/2 3/3/3 4/4/4
f 2/2/2 5/5/5 6/6/6 3/3/3
f 5/5/5 7/7/7 8/8/8 6/6/6
f 7/7/7 9/9/9 10/10/10 8/8/8
f 9/9/9 11/11/11 12/12/12 10/10/10
f 13/13/13 14/14/14 15/15/15 16/16/16
f 16/16/16 15/15/15 17/17/17 18/18/18
f 18/18/18 17/17/17 19/19/19 20/20/20
f 20/20/20 19/19/19 21/21/21 22/22/22
f 22/22/22 21/21/21 23/23/23 24/24/24
f 25/25/25 26/26/26 27/27/27 28/28/25
f 26/26/26 29/29/28 30/30/29 27/27/27
f 29/29/28 31/31/30 32/32/31 30/30/29
f 31/31/30 33/33/32 34/34/33 32/32/31
f 33/33/32 35/35/34 36/36/34 34/34/33
f 28/28/25 27/27/27 2/2/2 1/1/1
f 27/27/27 30/30/29 5/5/5 2/2/2
f 30/30/29 32/32/31 7/7/7 5/5/5
f 32/32/31 34/34/33 9/9/9 7/7/7
f 34/34/33 36/36/34 11/11/11 9/9/9
f 37/37/35 38/38/36 39/39/37 40/40/35
f 38/38/36 41/41/38 42/42/39 39/39/37
f 41/41/38 43/43/40 44/44/41 42/42/39
f 43/43/40 45/45/42 46/46/43 44/44/41
f 45/45/42 47/47/44 48/48/44 46/46/43
f 37/37/35 13/13/13 16/16/16 38/38/36
f 38/38/36 16/16/16 18/18/18 41/41/38
f 41/41/38 18/18/18 20/20/20 43/43/40
f 43/43/40 20/20/20 22/22/22 45/45/42
f 45/45/42 22/22/22 24/24/24 47/47/44
f 4/4/4 3/3/3 49/49/45 50/50/46
f 3/3/3 6/6/6 51/51/47 49/49/45
f 6/6/6 8/8/8 52/52/48 51/51/47
f 8/8/8 10/10/10 53/53/49 52/52/48
f 10/10/10 12/12/12 54/54/50 53/53/49
f 14/14/14 50/50/46 49/49/45 15/15/15
f 15/15/15 49/49/45 51/51/47 17/17/17
f 17/17/17 51/51/47 52/52/48 19/19/19
f 19/19/19 52/52/48 53/53/49 21/21/21
f 21/21/21 53/53/49 54/54/50 23/23/23
f 55/55/51 56/56/51 57/57/52 58/58/51 59/59/51 60/60/53 61/61/51 62/62/51 63/63/51
f 64/64/54 65/65/54 66/66/54 67/67/54 68/68/55 69/69/54 70/70/54 71/71/56 72/72/54
f 73/73/57 74/74/57 75/75/57 76/76/57
f 76/76/57 75/75/57 77/77/57 78/78/57
f 78/78/57 77/77/57 79/79/57 80/80/57
f 80/80/57 79/79/57 81/81/57 82/82/57
f 82/82/57 81/81/57 83/83/57 84/84/57
