# Blender v2.79 (sub 0) OBJ File: ''
# www.blender.org
v -0.500000 0.500000 -0.250000
v -0.500000 0.500000 0.250000
v -0.250000 0.500000 -0.250000
v 0.500000 0.500000 0.250000
v 0.500000 0.500000 -0.250000
v 0.250000 0.500000 -0.250000
v -0.500000 -0.500000 -0.250000
v -0.250000 -0.500000 -0.250000
v -0.500000 -0.500000 0.250000
v 0.500000 -0.500000 -0.250000
v 0.500000 -0.500000 0.250000
v 0.250000 -0.500000 -0.250000
v -0.250000 -0.500000 -0.500000
v 0.250000 -0.500000 -0.500000
v 0.250000 0.500000 -0.500000
v -0.250000 0.500000 -0.500000
v -0.250000 -0.500000 -0.250000
v -0.250000 0.500000 -0.250000
v -0.250000 0.500000 -0.500000
v -0.250000 -0.500000 -0.500000
v 0.250000 0.500000 -0.250000
v 0.250000 -0.500000 -0.250000
v 0.250000 -0.500000 -0.500000
v 0.250000 0.500000 -0.500000
v -0.250000 -0.500000 -0.250000
v -0.500000 -0.500000 -0.250000
v -0.500000 0.500000 -0.250000
v -0.250000 0.500000 -0.250000
v -0.500000 -0.500000 0.250000
v 0.500000 -0.500000 0.250000
v 0.500000 0.500000 0.250000
v -0.500000 0.500000 0.250000
v -0.500000 0.500000 0.250000
v -0.500000 0.500000 -0.250000
v -0.500000 -0.500000 -0.250000
v -0.500000 -0.500000 0.250000
v 0.500000 -0.500000 0.250000
v 0.500000 -0.500000 -0.250000
v 0.500000 0.500000 -0.250000
v 0.500000 0.500000 0.250000
v 0.500000 -0.500000 -0.250000
v 0.250000 -0.500000 -0.250000
v 0.250000 0.500000 -0.250000
v 0.500000 0.500000 -0.250000
v 0.250000 0.500000 -0.500000
v 0.250000 -0.500000 -0.500000
v -0.250000 -0.500000 -0.500000
v -0.250000 0.500000 -0.500000
vt 0.333134 0.999800
vt 0.333134 0.666866
vt 0.000000 0.000000
vt 0.000200 0.666467
vt 0.333134 0.666467
vt 0.000000 0.000000
vt 0.000000 0.000000
vt 0.000000 0.000000
vt 0.000000 0.000000
vt 0.333134 0.333533
vt 0.000200 0.333533
vt 0.000000 0.000000
vt 0.000000 0.000000
vt 0.000000 0.000000
vt 0.000000 0.000000
vt 0.000000 0.000000
vt 0.083433 0.333134
vt 0.083434 0.000200
vt 0.083434 0.000200
vt 0.083433 0.333134
vt 0.249900 0.000200
vt 0.249900 0.333134
vt 0.249900 0.333134
vt 0.249900 0.000200
vt 0.083433 0.333134
vt 0.000200 0.333134
vt 0.000200 0.000200
vt 0.083434 0.000200
vt 0.333533 0.000200
vt 0.666467 0.000200
vt 0.666467 0.333134
vt 0.333533 0.333134
vt 0.333134 0.666866
vt 0.333134 0.999800
vt 0.000200 0.999800
vt 0.000200 0.666866
vt 0.000200 0.333533
vt 0.333134 0.333533
vt 0.333134 0.666467
vt 0.000200 0.666467
vt 0.333134 0.333134
vt 0.249900 0.333134
vt 0.249900 0.000200
vt 0.333134 0.000200
vt 0.000000 0.000000
vt 0.000000 0.000000
vt 0.083433 0.333134
vt 0.000000 0.000000
vn 0.0000 1.0000 0.0000
vn 0.0000 -1.0000 -0.0000
vn -1.0000 0.0000 0.0000
vn 1.0000 0.0000 0.0000
vn 0.0000 0.0000 -1.0000
vn 0.0000 -0.0000 1.0000
s 1
f 1/1/1 2/2/1 3/3/1
f 4/4/1 5/5/1 6/6/1
s off
f 7/7/2 8/8/2 9/9/2
s 1
f 10/10/2 11/11/2 12/12/2
f 9/9/2 12/12/2 11/11/2
f 9/9/2 8/8/2 12/12/2
f 4/4/1 6/6/1 3/3/1
f 3/3/1 2/2/1 4/4/1
f 12/12/2 8/8/2 13/13/2 14/14/2
f 3/3/1 6/6/1 15/15/1 16/16/1
f 17/17/3 18/18/3 19/19/3 20/20/3
f 21/21/4 22/22/4 23/23/4 24/24/4
f 25/25/5 26/26/5 27/27/5 28/28/5
f 29/29/6 30/30/6 31/31/6 32/32/6
f 33/33/3 34/34/3 35/35/3 36/36/3
f 37/37/4 38/38/4 39/39/4 40/40/4
f 41/41/5 42/42/5 43/43/5 44/44/5
f 45/45/5 46/46/5 47/47/5 48/48/5
