# Blender v2.79 (sub 0) OBJ File: ''
# www.blender.org
v 1.000000 0.205104 -0.346634
v 1.000000 0.250000 -0.500000
v -1.000000 0.250000 0.183090
v -1.000000 0.205104 0.336456
v 1.000000 -0.250000 -0.500000
v 1.000000 -0.205104 -0.346634
v -1.000000 -0.205104 0.336456
v -1.000000 -0.250000 0.183090
v 1.000000 -0.114070 -0.236547
v -1.000000 -0.114070 0.446543
v 1.000000 0.000000 -0.183090
v -1.000000 0.000000 0.500000
v 1.000000 0.114070 -0.236547
v -1.000000 0.114070 0.446543
v 1.000000 -0.250000 -0.500000
v -1.000000 -0.250000 -0.500000
v -1.000000 0.250000 -0.500000
v 1.000000 0.250000 -0.500000
v 1.000000 0.000000 -0.183090
v 1.000000 -0.114070 -0.236547
v 1.000000 0.114070 -0.236547
v 1.000000 -0.205104 -0.346634
v 1.000000 0.205104 -0.346634
v 1.000000 0.250000 -0.500000
v 1.000000 -0.250000 -0.500000
v -1.000000 -0.250000 -0.500000
v -1.000000 -0.250000 0.183090
v -1.000000 0.250000 0.183090
v -1.000000 0.250000 -0.500000
v -1.000000 0.205104 0.336456
v -1.000000 -0.205104 0.336456
v -1.000000 0.114070 0.446543
v -1.000000 -0.114070 0.446543
v -1.000000 0.000000 0.500000
v -1.000000 0.250000 -0.500000
v -1.000000 -0.250000 -0.500000
vt 0.497373 0.026950
vt 0.526387 0.000142
vt 0.526386 0.699319
vt 0.497372 0.726126
vt 0.349730 0.000143
vt 0.378744 0.026950
vt 0.378745 0.726126
vt 0.349731 0.699319
vt 0.408353 0.046192
vt 0.408353 0.745368
vt 0.438058 0.055537
vt 0.438059 0.754712
vt 0.467764 0.046192
vt 0.467764 0.745368
vt 0.494535 0.878595
vt 0.000142 0.878595
vt 0.000143 0.754997
vt 0.494535 0.754997
vt 0.556619 0.833336
vt 0.528421 0.820122
vt 0.584816 0.820122
vt 0.505918 0.792909
vt 0.607319 0.792909
vt 0.618418 0.754997
vt 0.494820 0.754997
vt 0.999857 0.000142
vt 0.999858 0.494535
vt 0.876259 0.494535
vt 0.876259 0.000142
vt 0.887358 0.532446
vt 0.988759 0.532446
vt 0.909861 0.559659
vt 0.966256 0.559659
vt 0.938058 0.572874
vt 0.875975 0.349731
vt 0.000142 0.349731
vn 0.1468 0.8909 0.4299
vn -0.0218 0.9994 0.0260
vn -0.0331 0.9994 -0.0114
vn 0.1684 0.8535 0.4931
vn -0.0218 -0.9994 0.0260
vn 0.1468 -0.8909 0.4299
vn 0.1684 -0.8535 0.4931
vn -0.0331 -0.9994 -0.0114
vn 0.2550 -0.6143 0.7467
vn 0.2655 -0.5701 0.7775
vn 0.3232 -0.0000 0.9463
vn 0.2550 0.6143 0.7467
vn 0.2655 0.5701 0.7775
vn 0.0000 0.0000 -1.0000
vn 1.0000 0.0000 0.0000
vn -1.0000 0.0000 0.0000
vn 0.0000 1.0000 0.0000
vn 0.0000 -1.0000 -0.0000
s 1
f 1/1/1 2/2/2 3/3/3 4/4/4
f 5/5/5 6/6/6 7/7/7 8/8/8
f 6/6/6 9/9/9 10/10/10 7/7/7
f 9/9/9 11/11/11 12/12/11 10/10/10
f 11/11/11 13/13/12 14/14/13 12/12/11
f 13/13/12 1/1/1 4/4/4 14/14/13
f 15/15/14 16/16/14 17/17/14 18/18/14
f 19/19/15 20/20/15 21/21/15
f 21/21/15 22/22/15 23/23/15
f 20/20/15 22/22/15 21/21/15
f 24/24/15 23/23/15 25/25/15
f 25/25/15 23/23/15 22/22/15
f 26/26/16 27/27/16 28/28/16 29/29/16
f 28/28/16 27/27/16 30/30/16
f 27/27/16 31/31/16 30/30/16
f 30/30/16 31/31/16 32/32/16
f 31/31/16 33/33/16 32/32/16
f 34/34/16 32/32/16 33/33/16
f 35/35/17 3/3/3 2/2/2
f 36/36/18 5/5/5 8/8/8
