# Blender v2.79 (sub 0) OBJ File: ''
# www.blender.org
v 0.500000 0.336456 -0.205104
v 0.500000 0.183090 -0.250000
v -0.500000 0.183090 -0.250000
v -0.500000 0.336456 -0.205104
v -0.500000 -0.500000 0.250000
v 0.500000 -0.500000 0.250000
v 0.500000 0.183090 0.250000
v -0.500000 0.183090 0.250000
v 0.500000 -0.500000 -0.250000
v -0.500000 -0.500000 -0.250000
v 0.500000 0.336456 0.205104
v -0.500000 0.336456 0.205104
v 0.500000 0.446543 0.114070
v -0.500000 0.446543 0.114070
v 0.500000 0.500000 0.000000
v -0.500000 0.500000 0.000000
v 0.500000 0.446543 -0.114070
v -0.500000 0.446543 -0.114070
v 0.500000 -0.500000 0.250000
v -0.500000 -0.500000 0.250000
v -0.500000 -0.500000 -0.250000
v 0.500000 -0.500000 -0.250000
v 0.500000 0.183090 0.250000
v 0.500000 -0.500000 0.250000
v 0.500000 -0.500000 -0.250000
v 0.500000 0.183090 -0.250000
v 0.500000 0.500000 0.000000
v 0.500000 0.446543 0.114070
v 0.500000 0.446543 -0.114070
v 0.500000 0.336456 0.205104
v 0.500000 0.336456 -0.205104
v -0.500000 -0.500000 0.250000
v -0.500000 0.183090 0.250000
v -0.500000 0.183090 -0.250000
v -0.500000 -0.500000 -0.250000
v -0.500000 0.336456 -0.205104
v -0.500000 0.336456 0.205104
v -0.500000 0.446543 -0.114070
v -0.500000 0.446543 0.114070
v -0.500000 0.500000 0.000000
v 0.205104 0.336456 0.500000
v 0.250000 0.183090 0.500000
v 0.250000 0.183090 -0.500000
v 0.205104 0.336456 -0.500000
v -0.250000 -0.500000 -0.500000
v -0.250000 -0.500000 0.500000
v -0.250000 0.183090 0.500000
v -0.250000 0.183090 -0.500000
v 0.250000 -0.500000 0.500000
v 0.250000 -0.500000 -0.500000
v -0.205104 0.336456 0.500000
v -0.205104 0.336456 -0.500000
v -0.114070 0.446543 0.500000
v -0.114070 0.446543 -0.500000
v 0.000000 0.500000 0.500000
v 0.000000 0.500000 -0.500000
v 0.114070 0.446543 0.500000
v 0.114070 0.446543 -0.500000
v -0.250000 -0.500000 0.500000
v -0.250000 -0.500000 -0.500000
v 0.250000 -0.500000 -0.500000
v 0.250000 -0.500000 0.500000
v -0.250000 0.183090 0.500000
v -0.250000 -0.500000 0.500000
v 0.250000 -0.500000 0.500000
v 0.250000 0.183090 0.500000
v 0.000000 0.500000 0.500000
v -0.114070 0.446543 0.500000
v 0.114070 0.446543 0.500000
v -0.205104 0.336456 0.500000
v 0.205104 0.336456 0.500000
v -0.250000 -0.500000 -0.500000
v -0.250000 0.183090 -0.500000
v 0.250000 0.183090 -0.500000
v 0.250000 -0.500000 -0.500000
v 0.205104 0.336456 -0.500000
v -0.205104 0.336456 -0.500000
v 0.114070 0.446543 -0.500000
v -0.114070 0.446543 -0.500000
v 0.000000 0.500000 -0.500000
vt 0.449771 0.620866
vt 0.449771 0.692715
vt 0.000163 0.692715
vt 0.000163 0.620866
vt 0.000162 0.000163
vt 0.449771 0.000162
vt 0.449771 0.307285
vt 0.000163 0.307286
vt 0.449771 0.999838
vt 0.000162 0.999837
vt 0.449771 0.379134
vt 0.000163 0.379134
vt 0.449771 0.443361
vt 0.000163 0.443361
vt 0.449771 0.500000
vt 0.000163 0.500000
vt 0.449771 0.556639
vt 0.000163 0.556639
vt 0.899704 0.674900
vt 0.450096 0.674900
vt 0.450096 0.450096
vt 0.899704 0.450096
vt 0.450096 0.307285
vt 0.450096 0.000162
vt 0.674900 0.000162
vt 0.674900 0.307285
vt 0.562498 0.449771
vt 0.511211 0.425736
vt 0.613785 0.425736
vt 0.470281 0.376240
vt 0.654714 0.376240
vt 0.900029 0.000162
vt 0.900029 0.307285
vt 0.675225 0.307285
vt 0.675225 0.000162
vt 0.695410 0.376240
vt 0.879843 0.376240
vt 0.736340 0.425736
vt 0.838914 0.425736
vt 0.787627 0.449771
vt 0.449771 0.620866
vt 0.449771 0.692715
vt 0.000163 0.692715
vt 0.000163 0.620866
vt 0.000162 0.000163
vt 0.449771 0.000162
vt 0.449771 0.307285
vt 0.000163 0.307286
vt 0.449771 0.999838
vt 0.000162 0.999837
vt 0.449771 0.379134
vt 0.000163 0.379134
vt 0.449771 0.443361
vt 0.000163 0.443361
vt 0.449771 0.500000
vt 0.000163 0.500000
vt 0.449771 0.556639
vt 0.000163 0.556639
vt 0.899704 0.674900
vt 0.450096 0.674900
vt 0.450096 0.450096
vt 0.899704 0.450096
vt 0.450096 0.307285
vt 0.450096 0.000162
vt 0.674900 0.000162
vt 0.674900 0.307285
vt 0.562498 0.449771
vt 0.511211 0.425736
vt 0.613785 0.425736
vt 0.470281 0.376240
vt 0.654714 0.376240
vt 0.900029 0.000162
vt 0.900029 0.307285
vt 0.675225 0.307285
vt 0.675225 0.000162
vt 0.695410 0.376240
vt 0.879843 0.376240
vt 0.736340 0.425736
vt 0.838914 0.425736
vt 0.787627 0.449771
vn 0.0000 0.4687 -0.8833
vn 0.0000 0.0000 -1.0000
vn 0.0000 -0.0000 1.0000
vn 0.0000 0.4687 0.8833
vn 0.0000 0.7906 0.6124
vn 0.0000 1.0000 0.0000
vn 0.0000 0.7906 -0.6124
vn 0.0000 -1.0000 -0.0000
vn 1.0000 -0.0000 0.0000
vn -1.0000 -0.0000 0.0000
vn 0.8833 0.4687 0.0000
vn -0.8833 0.4687 0.0000
vn -0.6124 0.7906 0.0000
vn 0.6124 0.7906 0.0000
s 1
f 1/1/1 2/2/2 3/3/2 4/4/1
f 5/5/3 6/6/3 7/7/3 8/8/3
f 9/9/2 10/10/2 3/3/2 2/2/2
f 7/7/3 11/11/4 12/12/4 8/8/3
f 11/11/4 13/13/5 14/14/5 12/12/4
f 13/13/5 15/15/6 16/16/6 14/14/5
f 15/15/6 17/17/7 18/18/7 16/16/6
f 17/17/7 1/1/1 4/4/1 18/18/7
f 19/19/8 20/20/8 21/21/8 22/22/8
f 23/23/9 24/24/9 25/25/9 26/26/9
f 27/27/9 28/28/9 29/29/9
f 29/29/9 30/30/9 31/31/9
f 28/28/9 30/30/9 29/29/9
f 26/26/9 31/31/9 23/23/9
f 23/23/9 31/31/9 30/30/9
f 32/32/10 33/33/10 34/34/10 35/35/10
f 34/34/10 33/33/10 36/36/10
f 33/33/10 37/37/10 36/36/10
f 36/36/10 37/37/10 38/38/10
f 37/37/10 39/39/10 38/38/10
f 40/40/10 38/38/10 39/39/10
f 41/41/11 42/42/9 43/43/9 44/44/11
f 45/45/10 46/46/10 47/47/10 48/48/10
f 49/49/9 50/50/9 43/43/9 42/42/9
f 47/47/10 51/51/12 52/52/12 48/48/10
f 51/51/12 53/53/13 54/54/13 52/52/12
f 53/53/13 55/55/6 56/56/6 54/54/13
f 55/55/6 57/57/14 58/58/14 56/56/6
f 57/57/14 41/41/11 44/44/11 58/58/14
f 59/59/8 60/60/8 61/61/8 62/62/8
f 63/63/3 64/64/3 65/65/3 66/66/3
f 67/67/3 68/68/3 69/69/3
f 69/69/3 70/70/3 71/71/3
f 68/68/3 70/70/3 69/69/3
f 66/66/3 71/71/3 63/63/3
f 63/63/3 71/71/3 70/70/3
f 72/72/2 73/73/2 74/74/2 75/75/2
f 74/74/2 73/73/2 76/76/2
f 73/73/2 77/77/2 76/76/2
f 76/76/2 77/77/2 78/78/2
f 77/77/2 79/79/2 78/78/2
f 80/80/2 78/78/2 79/79/2
