# Blender v2.79 (sub 0) OBJ File: ''
# www.blender.org
v 1.000000 0.250000 0.683090
v -1.000000 0.205104 0.836456
v 1.000000 0.205104 0.836456
v 1.000000 -0.250000 -1.000000
v -1.000000 -0.250000 0.683090
v -1.000000 -0.250000 -1.000000
v -1.000000 0.250000 -1.000000
v 1.000000 0.250000 -1.000000
v 1.000000 -0.205104 0.836456
v 1.000000 -0.250000 0.683090
v 1.000000 -0.114070 0.946543
v -1.000000 -0.205104 0.836456
v 1.000000 -0.000000 1.000000
v -1.000000 -0.114070 0.946543
v 1.000000 0.114070 0.946543
v -1.000000 -0.000000 1.000000
v -1.000000 0.114070 0.946543
v -1.000000 -0.250000 -1.000000
v 1.000000 0.250000 -1.000000
v 1.000000 -0.250000 -1.000000
v 1.000000 -0.250000 -1.000000
v 1.000000 0.250000 0.683090
v 1.000000 -0.250000 0.683090
v 1.000000 -0.000000 1.000000
v 1.000000 -0.114070 0.946543
v 1.000000 0.114070 0.946543
v 1.000000 -0.205104 0.836456
v 1.000000 0.205104 0.836456
v -1.000000 -0.250000 0.683090
v -1.000000 0.250000 -1.000000
v -1.000000 -0.250000 -1.000000
v -1.000000 0.250000 0.683090
v -1.000000 0.205104 0.836456
v -1.000000 -0.205104 0.836456
v -1.000000 0.114070 0.946543
v -1.000000 -0.114070 0.946543
v -1.000000 -0.000000 1.000000
v -1.000000 0.250000 0.683090
v -1.000000 0.250000 -1.000000
v 1.000000 0.250000 -1.000000
vt 0.601459 0.000140
vt 0.563632 0.473557
vt 0.563633 0.000140
vt 0.000140 0.000140
vt 0.398541 0.473557
vt 0.000140 0.473557
vt 0.999860 0.473557
vt 0.999860 0.000140
vt 0.436367 0.000140
vt 0.398541 0.000140
vt 0.470181 0.000140
vt 0.436367 0.473557
vt 0.500000 0.000140
vt 0.470181 0.473557
vt 0.529819 0.000140
vt 0.500000 0.473557
vt 0.529819 0.473557
vt 0.000140 0.592190
vt 0.473556 0.473836
vt 0.473556 0.592190
vt 0.473836 0.473836
vt 0.592190 0.872237
vt 0.473836 0.872237
vt 0.533013 0.947252
vt 0.506011 0.934599
vt 0.560014 0.934599
vt 0.484463 0.908540
vt 0.581563 0.908540
vt 0.710823 0.872237
vt 0.592469 0.473836
vt 0.710823 0.473836
vt 0.592469 0.872237
vt 0.603097 0.908540
vt 0.700196 0.908540
vt 0.624645 0.934599
vt 0.678648 0.934599
vt 0.651646 0.947252
vt 0.601459 0.473557
vt 0.000140 0.473836
vt 0.592190 0.473836
vn 0.0000 1.0000 -0.0000
vn 0.0000 0.8833 0.4687
vn 0.0000 -1.0000 -0.0000
vn 0.0000 -0.8833 0.4687
vn 0.0001 -1.0000 0.0000
vn 0.0000 -0.6124 0.7906
vn 0.0000 0.0000 1.0000
vn 0.0000 0.6124 0.7906
vn 0.0000 0.0000 -1.0000
vn 1.0000 0.0000 0.0000
vn -1.0000 0.0000 0.0000
vn -0.0001 1.0000 0.0000
s 1
f 1/1/1 2/2/2 3/3/2
f 4/4/3 5/5/3 6/6/3
f 7/7/1 1/1/1 8/8/1
f 9/9/4 5/5/3 10/10/5
f 11/11/6 12/12/4 9/9/4
f 13/13/7 14/14/6 11/11/6
f 15/15/8 16/16/7 13/13/7
f 3/3/2 17/17/8 15/15/8
f 18/18/9 19/19/9 20/20/9
f 21/21/10 22/22/10 23/23/10
f 24/24/10 25/25/10 26/26/10
f 26/26/10 27/27/10 28/28/10
f 25/25/10 27/27/10 26/26/10
f 22/22/10 28/28/10 23/23/10
f 23/23/10 28/28/10 27/27/10
f 29/29/11 30/30/11 31/31/11
f 32/32/11 29/29/11 33/33/11
f 29/29/11 34/34/11 33/33/11
f 33/33/11 34/34/11 35/35/11
f 34/34/11 36/36/11 35/35/11
f 37/37/11 35/35/11 36/36/11
f 1/1/1 38/38/12 2/2/2
f 4/4/3 10/10/5 5/5/3
f 7/7/1 38/38/12 1/1/1
f 9/9/4 12/12/4 5/5/3
f 11/11/6 14/14/6 12/12/4
f 13/13/7 16/16/7 14/14/6
f 15/15/8 17/17/8 16/16/7
f 3/3/2 2/2/2 17/17/8
f 18/18/9 39/39/9 19/19/9
f 21/21/10 40/40/10 22/22/10
f 29/29/11 32/32/11 30/30/11
