# Blender v2.79 (sub 0) OBJ File: ''
# www.blender.org
v 1.000000 0.205104 -0.346634
v 1.000000 0.250000 -0.500000
v -1.000000 0.250000 0.500000
v -1.000000 0.205104 0.653366
v 1.000000 -0.250000 -0.500000
v 1.000000 -0.205104 -0.346634
v -1.000000 -0.205104 0.653366
v -1.000000 -0.250000 0.500000
v 1.000000 -0.114070 -0.236547
v -1.000000 -0.114070 0.763453
v 1.000000 0.000000 -0.183090
v -1.000000 -0.000000 0.816910
v 1.000000 0.114070 -0.236547
v -1.000000 0.114070 0.763453
v 1.000000 -0.250000 -0.500000
v -1.000000 -0.250000 -0.500000
v -1.000000 0.250000 -0.500000
v 1.000000 0.250000 -0.500000
v 1.000000 0.000000 -0.183090
v 1.000000 -0.114070 -0.236547
v 1.000000 0.114070 -0.236547
v 1.000000 -0.205104 -0.346634
v 1.000000 0.205104 -0.346634
v 1.000000 0.250000 -0.500000
v 1.000000 -0.250000 -0.500000
v -1.000000 -0.250000 -0.500000
v -1.000000 -0.250000 0.500000
v -1.000000 0.250000 0.500000
v -1.000000 0.250000 -0.500000
v -1.000000 0.205104 0.653366
v -1.000000 -0.205104 0.653366
v -1.000000 0.114070 0.763453
v -1.000000 -0.114070 0.763453
v -1.000000 -0.000000 0.816910
v -1.000000 0.250000 -0.500000
v -1.000000 -0.250000 -0.500000
vt 0.497373 0.026950
vt 0.526387 0.000142
vt 0.526386 0.699319
vt 0.497372 0.726126
vt 0.349730 0.000143
vt 0.378744 0.026950
vt 0.378745 0.726126
vt 0.349731 0.699319
vt 0.408353 0.046192
vt 0.408353 0.745368
vt 0.438058 0.055537
vt 0.438059 0.754712
vt 0.467764 0.046192
vt 0.467764 0.745368
vt 0.494535 0.878595
vt 0.000142 0.878595
vt 0.000143 0.754997
vt 0.494535 0.754997
vt 0.556619 0.833336
vt 0.528421 0.820122
vt 0.584816 0.820122
vt 0.505918 0.792909
vt 0.607319 0.792909
vt 0.618418 0.754997
vt 0.494820 0.754997
vt 0.999857 0.000142
vt 0.999858 0.494535
vt 0.876259 0.494535
vt 0.876259 0.000142
vt 0.887358 0.532446
vt 0.988759 0.532446
vt 0.909861 0.559659
vt 0.966256 0.559659
vt 0.938058 0.572874
vt 0.875975 0.349731
vt 0.000142 0.349731
vn 0.2056 0.8881 0.4111
vn -0.0000 1.0000 0.0000
vn 0.2481 0.8320 0.4962
vn -0.0000 -1.0000 0.0000
vn 0.2056 -0.8881 0.4111
vn 0.2481 -0.8320 0.4962
vn 0.3570 -0.6023 0.7140
vn 0.3762 -0.5407 0.7524
vn 0.4472 -0.0000 0.8944
vn 0.3570 0.6023 0.7140
vn 0.3762 0.5407 0.7524
vn 0.0000 0.0000 -1.0000
vn 1.0000 0.0000 0.0000
vn -1.0000 0.0000 0.0000
s 1
f 1/1/1 2/2/2 3/3/2 4/4/3
f 5/5/4 6/6/5 7/7/6 8/8/4
f 6/6/5 9/9/7 10/10/8 7/7/6
f 9/9/7 11/11/9 12/12/9 10/10/8
f 11/11/9 13/13/10 14/14/11 12/12/9
f 13/13/10 1/1/1 4/4/3 14/14/11
f 15/15/12 16/16/12 17/17/12 18/18/12
f 19/19/13 20/20/13 21/21/13
f 21/21/13 22/22/13 23/23/13
f 20/20/13 22/22/13 21/21/13
f 24/24/13 23/23/13 25/25/13
f 25/25/13 23/23/13 22/22/13
f 26/26/14 27/27/14 28/28/14 29/29/14
f 28/28/14 27/27/14 30/30/14
f 27/27/14 31/31/14 30/30/14
f 30/30/14 31/31/14 32/32/14
f 31/31/14 33/33/14 32/32/14
f 34/34/14 32/32/14 33/33/14
f 35/35/2 3/3/2 2/2/2
f 36/36/4 5/5/4 8/8/4
