# Blender v2.79 (sub 0) OBJ File: ''
# www.blender.org
v -0.500000 0.205104 0.743457
v -1.000000 0.250000 0.683090
v -1.000000 0.205104 0.836456
v -0.500000 -0.205104 0.743457
v -1.000000 -0.250000 0.683090
v -0.500000 -0.250000 0.590091
v -0.500000 -0.114070 0.853544
v -1.000000 -0.205104 0.836456
v -0.500000 -0.000000 0.907001
v -1.000000 -0.114070 0.946543
v -1.000000 0.114070 0.946543
v -1.000000 -0.000000 1.000000
v -0.500000 0.114070 0.853544
v -1.000000 -0.250000 -1.000000
v 1.000000 0.250000 -1.000000
v 1.000000 -0.250000 -1.000000
v 1.000000 -0.000000 0.316910
v 1.000000 -0.114070 0.263453
v 1.000000 0.114070 0.263453
v 1.000000 -0.205104 0.153366
v 1.000000 0.205104 0.153366
v 1.000000 0.250000 0.000000
v 1.000000 -0.250000 -0.000000
v -1.000000 -0.250000 0.683090
v -1.000000 0.250000 -1.000000
v -1.000000 -0.250000 -1.000000
v -1.000000 0.250000 0.683090
v -1.000000 0.205104 0.836456
v -1.000000 -0.205104 0.836456
v -1.000000 0.114070 0.946543
v -1.000000 -0.114070 0.946543
v -1.000000 -0.000000 1.000000
v -1.000000 0.250000 -1.000000
v 1.000000 0.250000 -1.000000
v -1.000000 -0.250000 -1.000000
v 1.000000 -0.250000 -1.000000
v 1.000000 0.250000 -1.000000
v 0.000000 -0.250000 0.454339
v 0.000000 0.250000 0.454339
v 0.500000 0.250000 0.248955
v 1.000000 0.114070 0.263453
v 0.500000 0.205104 0.402321
v 0.500000 0.114070 0.512408
v 0.000000 0.205104 0.607705
v 0.000000 0.114070 0.717792
v 1.000000 -0.000000 0.316910
v 0.500000 -0.000000 0.565865
v 0.000000 -0.000000 0.771249
v 0.500000 -0.114070 0.512408
v 1.000000 -0.114070 0.263453
v 0.000000 -0.114070 0.717792
v 0.500000 -0.205104 0.402321
v 1.000000 -0.205104 0.153366
v 0.000000 -0.205104 0.607705
v 0.500000 -0.250000 0.248955
v 1.000000 -0.250000 -0.000000
v 1.000000 0.205104 0.153366
v -0.500000 0.250000 0.590091
v -1.000000 0.250000 -1.000000
v 1.000000 -0.250000 -1.000000
v 1.000000 0.250000 0.000000
vt 0.353428 0.111006
vt 0.313807 0.025020
vt 0.353428 0.012995
vt 0.646572 0.111006
vt 0.686193 0.025020
vt 0.686193 0.123031
vt 0.580437 0.102374
vt 0.646572 0.012995
vt 0.500000 0.098183
vt 0.580437 0.004363
vt 0.419563 0.004363
vt 0.500000 0.000172
vt 0.419563 0.102374
vt 0.701825 0.846471
vt 0.351170 0.495816
vt 0.701825 0.495816
vt 0.702168 0.671144
vt 0.711540 0.591145
vt 0.711540 0.751142
vt 0.730842 0.527303
vt 0.730842 0.814985
vt 0.757731 0.846471
vt 0.757731 0.495816
vt 0.350827 0.846471
vt 0.000172 0.495816
vt 0.350827 0.495816
vt 0.000172 0.846471
vt 0.031658 0.873360
vt 0.319340 0.873360
vt 0.095500 0.892662
vt 0.255497 0.892662
vt 0.175499 0.902034
vt 0.000172 0.181838
vt 0.156989 0.495473
vt 0.999828 0.181838
vt 0.843011 0.495473
vt 0.933059 0.846471
vt 0.686193 0.221042
vt 0.313807 0.221042
vt 0.313807 0.319053
vt 0.419563 0.396407
vt 0.353428 0.307028
vt 0.419563 0.298396
vt 0.353428 0.209017
vt 0.419563 0.200385
vt 0.500000 0.392216
vt 0.500000 0.294205
vt 0.500000 0.196194
vt 0.580437 0.298396
vt 0.580437 0.396407
vt 0.580437 0.200385
vt 0.646572 0.307028
vt 0.646572 0.405039
vt 0.646572 0.209017
vt 0.686193 0.319053
vt 0.686193 0.417064
vt 0.353428 0.405039
vt 0.313807 0.123031
vt 0.351170 0.846471
vt 0.933059 0.495816
vt 0.313807 0.417064
vn 0.1089 0.8786 0.4650
vn 0.0000 1.0000 0.0000
vn 0.0977 0.8454 0.5252
vn 0.1089 -0.8786 0.4650
vn -0.0000 -1.0000 0.0000
vn 0.1793 -0.6037 0.7768
vn 0.0977 -0.8454 0.5252
vn 0.2094 0.0000 0.9778
vn 0.1532 -0.5457 0.8238
vn 0.1532 0.5457 0.8238
vn 0.1829 -0.0000 0.9831
vn 0.1793 0.6037 0.7768
vn 0.0000 0.0000 -1.0000
vn 1.0000 0.0000 0.0000
vn -1.0000 0.0000 0.0000
vn 0.3456 0.6314 0.6941
vn 0.2092 0.8654 0.4552
vn 0.3380 0.5801 0.7411
vn 0.1610 0.8729 0.4606
vn 0.2617 0.5937 0.7609
vn 0.4457 -0.0000 0.8952
vn 0.4022 0.0000 0.9156
vn 0.3021 -0.0000 0.9533
vn 0.3380 -0.5801 0.7411
vn 0.3456 -0.6314 0.6941
vn 0.2617 -0.5937 0.7609
vn 0.2092 -0.8654 0.4552
vn 0.1972 -0.8968 0.3961
vn 0.1610 -0.8729 0.4606
vn 0.1972 0.8968 0.3961
s 1
f 1/1/1 2/2/2 3/3/3
f 4/4/4 5/5/5 6/6/5
f 7/7/6 8/8/7 4/4/4
f 9/9/8 10/10/9 7/7/6
f 9/9/8 11/11/10 12/12/11
f 13/13/12 3/3/3 11/11/10
f 14/14/13 15/15/13 16/16/13
f 17/17/14 18/18/14 19/19/14
f 19/19/14 20/20/14 21/21/14
f 18/18/14 20/20/14 19/19/14
f 22/22/14 21/21/14 23/23/14
f 23/23/14 21/21/14 20/20/14
f 24/24/15 25/25/15 26/26/15
f 27/27/15 24/24/15 28/28/15
f 24/24/15 29/29/15 28/28/15
f 28/28/15 29/29/15 30/30/15
f 29/29/15 31/31/15 30/30/15
f 32/32/15 30/30/15 31/31/15
f 33/33/2 2/2/2 34/34/2
f 35/35/5 36/36/5 5/5/5
f 23/23/14 37/37/14 22/22/14
f 38/38/5 6/6/5 36/36/5
f 39/39/2 40/40/2 34/34/2
f 41/41/16 42/42/17 43/43/18
f 43/43/18 44/44/19 45/45/20
f 45/45/20 1/1/1 13/13/12
f 46/46/21 43/43/18 47/47/22
f 47/47/22 45/45/20 48/48/23
f 48/48/23 13/13/12 9/9/8
f 46/46/21 49/49/24 50/50/25
f 47/47/22 51/51/26 49/49/24
f 48/48/23 7/7/6 51/51/26
f 50/50/25 52/52/27 53/53/28
f 49/49/24 54/54/29 52/52/27
f 51/51/26 4/4/4 54/54/29
f 53/53/28 55/55/5 56/56/5
f 52/52/27 38/38/5 55/55/5
f 54/54/29 6/6/5 38/38/5
f 57/57/30 40/40/2 42/42/17
f 42/42/17 39/39/2 44/44/19
f 44/44/19 58/58/2 1/1/1
f 1/1/1 58/58/2 2/2/2
f 4/4/4 8/8/7 5/5/5
f 7/7/6 10/10/9 8/8/7
f 9/9/8 12/12/11 10/10/9
f 9/9/8 13/13/12 11/11/10
f 13/13/12 1/1/1 3/3/3
f 14/14/13 59/59/13 15/15/13
f 24/24/15 27/27/15 25/25/15
f 23/23/14 60/60/14 37/37/14
f 6/6/5 5/5/5 36/36/5
f 36/36/5 56/56/5 55/55/5
f 55/55/5 38/38/5 36/36/5
f 61/61/2 34/34/2 40/40/2
f 34/34/2 2/2/2 58/58/2
f 39/39/2 34/34/2 58/58/2
f 41/41/16 57/57/30 42/42/17
f 43/43/18 42/42/17 44/44/19
f 45/45/20 44/44/19 1/1/1
f 46/46/21 41/41/16 43/43/18
f 47/47/22 43/43/18 45/45/20
f 48/48/23 45/45/20 13/13/12
f 46/46/21 47/47/22 49/49/24
f 47/47/22 48/48/23 51/51/26
f 48/48/23 9/9/8 7/7/6
f 50/50/25 49/49/24 52/52/27
f 49/49/24 51/51/26 54/54/29
f 51/51/26 7/7/6 4/4/4
f 53/53/28 52/52/27 55/55/5
f 52/52/27 54/54/29 38/38/5
f 54/54/29 4/4/4 6/6/5
f 57/57/30 61/61/2 40/40/2
f 42/42/17 40/40/2 39/39/2
f 44/44/19 39/39/2 58/58/2
