# Blender v2.79 (sub 0) OBJ File: ''
# www.blender.org
v -0.199777 0.205104 0.446121
v -0.500000 0.250000 0.500000
v -0.500000 0.205104 0.653366
v -0.199777 -0.205104 0.446121
v -0.500000 -0.250000 0.500000
v -0.238119 -0.250000 0.331096
v -0.172255 -0.114070 0.528686
v -0.500000 -0.205104 0.653366
v -0.158891 -0.000000 0.568779
v -0.500000 -0.114070 0.763453
v -0.500000 0.114070 0.763453
v -0.500000 -0.000000 0.816910
v -0.172255 0.114070 0.528686
v -0.500000 -0.250000 -0.500000
v 0.182052 0.250000 -0.500000
v 0.182052 -0.250000 -0.500000
v 0.498962 0.000000 -0.500000
v 0.445505 -0.114070 -0.500000
v 0.445505 0.114070 -0.500000
v 0.335418 -0.205104 -0.500000
v 0.335418 0.205104 -0.500000
v 0.182052 0.250000 -0.500000
v 0.182052 -0.250000 -0.500000
v -0.500000 -0.250000 0.500000
v -0.500000 0.250000 -0.500000
v -0.500000 -0.250000 -0.500000
v -0.500000 0.250000 0.500000
v -0.500000 0.205104 0.653366
v -0.500000 -0.205104 0.653366
v -0.500000 0.114070 0.763453
v -0.500000 -0.114070 0.763453
v -0.500000 -0.000000 0.816910
v 0.007401 0.250000 0.031530
v 0.128547 0.250000 -0.237666
v -0.500000 0.250000 -0.500000
v 0.007401 -0.250000 0.031529
v -0.500000 -0.250000 -0.500000
v 0.335418 0.205104 -0.500000
v 0.326137 0.114070 -0.171803
v 0.445505 0.114070 -0.500000
v 0.084084 0.205104 0.108213
v 0.139127 0.114070 0.163256
v 0.366230 0.000000 -0.158438
v 0.498962 0.000000 -0.500000
v 0.165856 -0.000000 0.189985
v 0.445505 -0.114070 -0.500000
v 0.326137 -0.114070 -0.171803
v 0.139127 -0.114070 0.163256
v 0.335418 -0.205104 -0.500000
v 0.243572 -0.205104 -0.199324
v 0.084084 -0.205104 0.108212
v 0.182052 -0.250000 -0.500000
v 0.128547 -0.250000 -0.237666
v 0.182052 0.250000 -0.500000
v 0.243572 0.205104 -0.199324
v -0.238119 0.250000 0.331097
v -0.500000 0.250000 -0.500000
vt 0.225354 0.589926
vt 0.128482 0.686269
vt 0.069449 0.636946
vt 0.192906 0.397656
vt 0.069781 0.338439
vt 0.210276 0.346850
vt 0.183811 0.448402
vt 0.030204 0.404404
vt 0.183929 0.498044
vt 0.006044 0.468659
vt 0.025540 0.584180
vt 0.000157 0.529058
vt 0.200108 0.544975
vt 0.909902 0.862816
vt 0.694203 0.568581
vt 0.909902 0.568581
vt 0.802052 0.999843
vt 0.752843 0.976782
vt 0.851262 0.976782
vt 0.713571 0.929291
vt 0.890534 0.929291
vt 0.909902 0.863129
vt 0.694203 0.863129
vt 0.909902 0.431554
vt 0.694203 0.000157
vt 0.909902 0.000157
vt 0.694203 0.431554
vt 0.713571 0.497715
vt 0.890534 0.497715
vt 0.752843 0.545206
vt 0.851262 0.545206
vt 0.802052 0.568268
vt 0.416364 0.602071
vt 0.540521 0.597055
vt 0.528692 0.905344
vt 0.369353 0.323498
vt 0.375934 0.000157
vt 0.682695 0.538312
vt 0.540089 0.489115
vt 0.693890 0.471417
vt 0.400839 0.557144
vt 0.387681 0.511454
vt 0.534901 0.438814
vt 0.693890 0.411984
vt 0.377167 0.465433
vt 0.674386 0.355842
vt 0.523295 0.389596
vt 0.371996 0.418510
vt 0.641859 0.296325
vt 0.507530 0.339178
vt 0.369431 0.371032
vt 0.597820 0.233508
vt 0.488280 0.287491
vt 0.661709 0.612101
vt 0.541743 0.541914
vt 0.258435 0.632217
vt 0.694203 0.862816
vn 0.3983 0.8074 0.4353
vn 0.0000 1.0000 0.0000
vn 0.3496 0.7960 0.4941
vn 0.3983 -0.8074 0.4353
vn 0.0000 -1.0000 0.0000
vn 0.5836 -0.4961 0.6428
vn 0.3496 -0.7960 0.4941
vn 0.6684 -0.0000 0.7438
vn 0.5095 -0.4933 0.7050
vn 0.5095 0.4933 0.7050
vn 0.5883 -0.0000 0.8087
vn 0.5836 0.4961 0.6428
vn 0.0000 0.0000 -1.0000
vn -1.0000 -0.0000 0.0000
vn 0.4994 0.8496 0.1696
vn 0.7778 0.5264 0.3434
vn 0.7756 0.5595 0.2921
vn 0.4987 0.7987 0.3368
vn 0.7180 0.4821 0.5020
vn 0.9087 -0.0000 0.4175
vn 0.9321 -0.0000 0.3622
vn 0.8156 -0.0000 0.5787
vn 0.7756 -0.5595 0.2921
vn 0.7778 -0.5264 0.3434
vn 0.7180 -0.4821 0.5020
vn 0.4994 -0.8496 0.1696
vn 0.5185 -0.8307 0.2030
vn 0.4987 -0.7987 0.3368
vn 0.5185 0.8307 0.2030
s 1
f 1/1/1 2/2/2 3/3/3
f 4/4/4 5/5/5 6/6/5
f 7/7/6 8/8/7 4/4/4
f 9/9/8 10/10/9 7/7/6
f 9/9/8 11/11/10 12/12/11
f 13/13/12 3/3/3 11/11/10
f 14/14/13 15/15/13 16/16/13
f 17/17/13 18/18/13 19/19/13
f 19/19/13 20/20/13 21/21/13
f 18/18/13 20/20/13 19/19/13
f 22/22/13 21/21/13 23/23/13
f 23/23/13 21/21/13 20/20/13
f 24/24/14 25/25/14 26/26/14
f 27/27/14 24/24/14 28/28/14
f 24/24/14 29/29/14 28/28/14
f 28/28/14 29/29/14 30/30/14
f 29/29/14 31/31/14 30/30/14
f 32/32/14 30/30/14 31/31/14
f 33/33/2 34/34/2 35/35/2
f 36/36/5 6/6/5 37/37/5
f 38/38/15 39/39/16 40/40/17
f 39/39/16 41/41/18 42/42/19
f 42/42/19 1/1/1 13/13/12
f 40/40/17 43/43/20 44/44/21
f 43/43/20 42/42/19 45/45/22
f 45/45/22 13/13/12 9/9/8
f 46/46/23 43/43/20 47/47/24
f 43/43/20 48/48/25 47/47/24
f 45/45/22 7/7/6 48/48/25
f 49/49/26 47/47/24 50/50/27
f 47/47/24 51/51/28 50/50/27
f 48/48/25 4/4/4 51/51/28
f 52/52/5 50/50/27 53/53/5
f 50/50/27 36/36/5 53/53/5
f 51/51/28 6/6/5 36/36/5
f 54/54/2 55/55/29 38/38/15
f 55/55/29 33/33/2 41/41/18
f 41/41/18 56/56/2 1/1/1
f 1/1/1 56/56/2 2/2/2
f 4/4/4 8/8/7 5/5/5
f 7/7/6 10/10/9 8/8/7
f 9/9/8 12/12/11 10/10/9
f 9/9/8 13/13/12 11/11/10
f 13/13/12 1/1/1 3/3/3
f 14/14/13 57/57/13 15/15/13
f 24/24/14 27/27/14 25/25/14
f 54/54/2 35/35/2 34/34/2
f 35/35/2 2/2/2 56/56/2
f 33/33/2 35/35/2 56/56/2
f 5/5/5 37/37/5 6/6/5
f 37/37/5 52/52/5 53/53/5
f 36/36/5 37/37/5 53/53/5
f 38/38/15 55/55/29 39/39/16
f 39/39/16 55/55/29 41/41/18
f 42/42/19 41/41/18 1/1/1
f 40/40/17 39/39/16 43/43/20
f 43/43/20 39/39/16 42/42/19
f 45/45/22 42/42/19 13/13/12
f 46/46/23 44/44/21 43/43/20
f 43/43/20 45/45/22 48/48/25
f 45/45/22 9/9/8 7/7/6
f 49/49/26 46/46/23 47/47/24
f 47/47/24 48/48/25 51/51/28
f 48/48/25 7/7/6 4/4/4
f 52/52/5 49/49/26 50/50/27
f 50/50/27 51/51/28 36/36/5
f 51/51/28 4/4/4 6/6/5
f 54/54/2 34/34/2 55/55/29
f 55/55/29 34/34/2 33/33/2
f 41/41/18 33/33/2 56/56/2
